<?xml version="1.0" standalone="no"?>
<!DOCTYPE svg PUBLIC "-//W3C//DTD SVG 20010904//EN"
 "http://www.w3.org/TR/2001/REC-SVG-20010904/DTD/svg10.dtd">
<svg version="1.0" xmlns="http://www.w3.org/2000/svg"
 width="1024.000000pt" height="1536.000000pt" viewBox="0 0 1024.000000 1536.000000"
 preserveAspectRatio="xMidYMid meet">

<g transform="translate(0.000000,1536.000000) scale(0.100000,-0.100000)"
fill="#000000" stroke="none">
<path d="M10160 10389 c-41 -32 -92 -70 -113 -84 -40 -27 -60 -43 -116 -91
-20 -17 -94 -77 -165 -135 -238 -191 -402 -324 -561 -454 -54 -44 -112 -91
-129 -105 -36 -28 -115 -95 -221 -185 -148 -128 -468 -376 -647 -503 -18 -13
-43 -31 -55 -42 -12 -10 -42 -30 -68 -45 -26 -14 -79 -47 -118 -74 -201 -134
-627 -371 -669 -371 -9 0 -23 -6 -30 -13 -24 -23 -90 -38 -107 -24 -12 9 -13
9 -7 0 5 -9 1 -12 -11 -11 -46 4 -74 -2 -67 -14 6 -10 5 -10 -8 0 -13 11 -16
6 -22 -35 -3 -27 -15 -99 -27 -160 l-21 -113 -63 0 c-75 0 -95 -6 -95 -30 0
-12 -20 -27 -60 -46 -46 -22 -60 -34 -60 -51 0 -25 -9 -32 -48 -39 -15 -3 -41
-18 -58 -35 -17 -16 -33 -27 -36 -23 -4 3 -11 -3 -17 -14 -6 -10 -23 -24 -38
-31 -15 -6 -33 -23 -40 -36 -10 -23 -9 -25 13 -25 29 0 61 -30 70 -66 15 -60
-14 -259 -63 -436 l-16 -58 -46 2 c-42 1 -43 2 -9 5 29 3 38 10 46 31 5 15 8
36 6 47 -2 11 -4 50 -5 88 -1 44 -6 67 -14 67 -14 0 -35 43 -35 72 0 11 8 27
18 35 15 13 15 13 -5 4 -22 -11 -38 -48 -48 -116 -14 -89 -17 -98 -26 -84 -6
9 -7 -2 -4 -31 4 -36 3 -40 -5 -20 -7 20 -9 14 -5 -25 3 -32 2 -43 -4 -30 -7
17 -9 16 -13 -12 -2 -17 -2 -31 1 -30 3 1 20 -2 38 -5 29 -7 31 -10 24 -34 -4
-15 -16 -32 -26 -38 -11 -6 -25 -17 -33 -23 -7 -7 -33 -13 -56 -13 -40 0 -43
-2 -43 -25 0 -18 5 -25 19 -25 10 0 16 -5 13 -10 -3 -6 5 -14 19 -20 16 -6 26
-17 26 -30 0 -11 5 -20 11 -20 6 0 7 -8 3 -22 -9 -26 -12 -55 -13 -118 -1 -46
-1 -46 -59 -72 -50 -23 -70 -27 -156 -27 -88 1 -100 -2 -113 -20 -8 -12 -20
-21 -28 -21 -8 0 -32 -9 -53 -20 -21 -11 -60 -23 -87 -26 -59 -7 -206 -75
-225 -104 -3 -4 -21 -11 -40 -15 -19 -4 -39 -11 -45 -15 -14 -10 -93 -26 -189
-37 -40 -4 -52 -2 -63 12 -12 17 -14 16 -26 -14 -7 -17 -16 -28 -20 -25 -4 4
-12 2 -19 -3 -21 -17 -78 -26 -78 -13 0 6 -4 9 -8 6 -5 -3 -21 -7 -37 -10 -16
-3 -31 -10 -35 -16 -4 -7 -20 -9 -42 -5 -28 5 -37 3 -42 -10 -3 -9 -10 -14
-15 -10 -5 3 -13 0 -16 -6 -4 -5 -13 -8 -21 -5 -8 3 -23 1 -33 -6 -13 -8 -27
-8 -49 0 -17 6 -33 8 -36 5 -11 -11 -66 -8 -66 4 0 6 -13 16 -30 21 -23 9 -33
8 -45 -4 -23 -23 -77 -36 -87 -21 -6 9 -11 8 -19 -5 -12 -22 -32 -23 -49 -3
-11 13 -15 13 -29 2 -9 -7 -38 -19 -66 -25 -27 -6 -59 -14 -69 -18 -14 -5 -17
-4 -12 5 6 9 -16 12 -97 10 -58 -1 -109 1 -114 4 -5 3 -15 2 -23 -4 -8 -5 -27
-9 -41 -9 -28 0 -64 -31 -52 -44 5 -5 -20 -6 -55 -3 -39 4 -60 2 -57 -3 4 -6
34 -10 68 -10 34 0 107 -7 162 -16 65 -9 216 -17 430 -21 338 -6 571 6 845 42
208 28 208 28 180 12 -27 -15 -218 -53 -310 -62 -30 -3 -102 -9 -160 -15 -124
-11 -277 -19 -415 -21 -55 -1 -111 -7 -124 -13 -19 -8 -25 -8 -29 2 -2 7 -20
12 -41 12 -21 0 -41 3 -45 7 -7 8 -3 7 -141 17 -136 10 -197 16 -217 22 -13 4
-18 0 -18 -16 0 -38 -19 -60 -50 -60 -30 0 -33 5 -42 65 -3 16 -17 22 -78 32
-41 7 -93 15 -116 17 -57 7 -94 17 -94 26 0 4 19 4 41 -1 23 -6 46 -8 51 -7 6
2 -59 18 -144 36 -438 94 -655 155 -1038 294 -298 108 -424 163 -834 364 -16
8 -31 13 -32 11 -6 -5 220 -224 236 -229 8 -3 12 -8 9 -12 -4 -4 -44 11 -90
32 -46 22 -101 47 -123 57 -48 21 -204 78 -317 114 -47 16 -95 34 -108 40 -13
7 -92 37 -176 66 -136 47 -335 137 -374 168 -12 9 -13 9 -7 -1 4 -7 31 -30 59
-51 29 -21 61 -47 72 -57 34 -32 95 -112 95 -124 0 -7 7 -26 15 -43 8 -18 20
-50 28 -72 8 -22 18 -48 22 -57 5 -13 3 -18 -9 -18 -22 0 -21 -5 19 -84 19
-38 32 -72 30 -76 -2 -4 0 -21 4 -38 8 -25 6 -31 -10 -35 -23 -6 -26 -42 -4
-51 8 -3 15 -12 15 -20 0 -8 5 -16 11 -18 11 -4 19 -147 8 -153 -3 -3 -14 4
-24 15 -10 11 -23 20 -29 20 -5 0 5 -16 24 -35 19 -19 40 -35 47 -35 7 0 13
-6 13 -13 0 -12 143 -136 205 -177 12 -8 40 -32 62 -53 22 -22 65 -56 94 -76
30 -21 95 -67 144 -102 50 -36 173 -118 275 -184 102 -65 223 -144 269 -174
121 -81 149 -99 268 -171 134 -80 191 -118 268 -172 32 -24 67 -47 76 -53 21
-12 86 -59 147 -106 61 -46 72 -52 72 -41 0 5 -30 30 -67 56 -38 25 -94 65
-125 89 -32 23 -81 59 -110 79 -29 21 -71 53 -93 73 -22 19 -43 35 -46 35 -4
0 -24 16 -45 35 -22 20 -58 47 -81 61 -24 14 -43 29 -43 34 0 4 -10 10 -22 13
-13 4 -40 22 -60 41 -20 19 -54 44 -75 55 -60 32 -154 125 -157 155 -3 21 1
26 20 26 13 0 28 9 34 20 6 11 15 20 21 20 6 0 7 -4 4 -10 -8 -12 9 -13 33 -1
113 55 127 58 156 33 12 -10 46 -26 76 -36 30 -11 62 -25 71 -32 8 -8 19 -14
23 -14 4 0 62 -37 129 -82 67 -45 136 -90 152 -100 17 -11 71 -45 120 -77 50
-31 115 -71 145 -88 30 -16 165 -93 300 -170 379 -217 540 -300 850 -438 47
-21 126 -57 175 -80 50 -24 101 -46 115 -50 22 -7 23 -6 11 9 -7 9 -17 16 -22
16 -11 0 -113 44 -164 71 -22 12 -87 46 -144 76 -57 30 -121 65 -142 79 -21
13 -43 24 -48 24 -5 0 -14 6 -20 14 -10 12 -8 13 11 8 21 -5 22 -4 8 13 -14
17 -13 18 13 11 19 -4 26 -3 22 4 -3 5 -1 10 6 10 7 0 27 11 45 25 40 31 42
31 47 3 4 -23 4 -23 14 2 7 18 7 27 0 32 -17 11 15 20 49 14 147 -27 747 -37
954 -15 52 5 118 12 145 14 28 3 66 7 87 11 20 3 65 -1 100 -10 58 -14 153
-30 428 -72 58 -9 143 -23 190 -31 98 -17 564 -31 573 -17 3 5 -60 9 -146 9
-154 1 -235 12 -484 67 -51 11 -104 18 -117 16 -15 -3 -27 0 -30 8 -3 8 -19
14 -35 14 -17 0 -34 6 -38 13 -4 8 -21 17 -36 21 -17 4 -26 3 -23 -3 4 -5 -3
-7 -16 -3 -21 5 -21 6 -2 13 10 4 29 8 42 8 12 1 22 5 22 11 0 5 -7 7 -15 4
-8 -4 -15 -2 -15 3 0 5 53 22 118 37 64 15 135 34 157 41 22 8 79 23 127 35
48 11 108 29 133 40 26 11 54 20 63 20 25 0 362 108 405 130 21 10 44 17 52
14 8 -3 49 8 92 24 43 16 125 45 183 64 58 20 159 57 225 83 66 26 141 53 166
60 45 12 108 43 119 57 3 4 12 3 20 -2 27 -17 68 -12 75 10 9 28 47 52 150 95
50 21 98 48 107 59 11 13 18 16 18 8 0 -7 4 -11 10 -7 15 9 0 34 -17 28 -11
-4 -14 -2 -9 5 4 7 13 12 20 12 7 0 21 7 32 15 14 11 15 14 2 9 -12 -4 -16 -1
-14 12 2 10 14 21 27 25 34 9 70 30 92 54 10 11 30 25 45 32 27 12 26 12 -8 7
-19 -3 -39 -9 -44 -15 -13 -12 -36 -12 -36 1 0 6 13 16 28 23 16 7 27 18 24
25 -2 7 0 12 5 11 10 -3 59 9 96 23 27 11 53 51 42 68 -10 17 37 43 87 48 35
3 59 11 72 24 26 28 8 38 -44 23 -142 -40 -323 -88 -720 -189 -242 -62 -596
-129 -616 -118 -14 8 -12 10 9 16 19 4 24 11 20 26 -3 12 1 22 11 26 19 7 22
34 4 34 -20 1 34 29 56 30 10 0 31 11 48 25 16 14 42 25 58 25 22 0 29 6 34
25 4 14 4 31 0 36 -3 6 3 13 14 16 17 4 19 9 11 30 -11 29 -12 44 -1 41 13 -4
52 26 52 41 0 7 7 19 16 26 15 11 15 12 0 12 -9 0 -16 -3 -16 -7 0 -4 -7 -7
-15 -7 -11 0 -12 4 -4 14 6 7 20 13 31 13 17 0 18 3 8 15 -7 8 -11 15 -9 16 2
0 15 3 29 5 21 4 44 27 44 44 0 3 -13 7 -29 10 l-30 5 22 22 c12 12 18 25 15
29 -4 4 -2 4 4 1 18 -10 53 29 47 53 -4 14 -1 20 11 20 9 0 16 5 16 11 0 5 5
7 11 3 6 -3 21 -2 32 4 47 23 120 52 131 52 10 0 138 37 256 75 25 8 126 37
225 65 189 54 506 158 810 267 99 36 209 74 245 85 91 29 251 90 247 95 -2 2
-44 -10 -93 -26 -132 -45 -266 -82 -272 -76 -3 3 0 5 6 5 7 0 12 5 12 10 0 6
-10 10 -22 10 -22 0 -22 0 -3 13 11 8 47 23 80 35 169 59 211 75 219 83 6 5
16 9 24 9 13 0 42 11 112 44 14 6 28 15 32 20 3 5 22 9 42 8 20 -1 36 3 36 9
0 6 5 7 11 4 5 -4 19 3 29 15 10 12 24 19 29 15 6 -3 11 -2 11 3 0 5 15 15 33
22 17 7 46 19 64 26 17 8 49 14 72 14 24 0 61 10 88 25 27 13 87 41 136 62
l87 37 0 1483 c0 816 -1 1483 -2 1482 -2 0 -37 -27 -78 -60z m-1149 -1096 c13
-13 7 -25 -34 -73 -25 -29 -31 -32 -53 -22 -29 14 -32 52 -6 87 13 19 25 24
50 21 18 -1 38 -8 43 -13z m541 -298 c-5 -26 -6 -27 -26 -19 -9 3 -16 15 -16
26 0 14 6 19 23 16 16 -2 21 -9 19 -23z m-1082 -20 c-7 -9 -15 -13 -19 -10 -3
3 1 10 9 15 21 14 24 12 10 -5z m597 -85 c-1 -11 -23 -35 -54 -56 -29 -20 -53
-43 -53 -51 0 -8 -4 -12 -9 -9 -8 6 -23 -18 -25 -39 -1 -5 -5 -10 -11 -11 -22
-2 -65 -24 -63 -33 2 -5 -1 -8 -5 -7 -5 0 -19 -16 -32 -38 -13 -21 -44 -58
-69 -81 -25 -23 -43 -45 -39 -48 3 -4 1 -7 -6 -7 -7 0 -9 -4 -6 -10 3 -6 -4
-10 -17 -10 -18 0 -20 -2 -8 -10 16 -10 20 -4 -72 -102 -21 -22 -38 -43 -38
-47 0 -4 -9 -7 -21 -8 -22 -2 -51 -32 -43 -45 3 -5 0 -8 -5 -8 -6 0 -11 -7
-11 -15 0 -8 -4 -15 -9 -15 -5 0 -12 -9 -16 -19 -6 -18 -40 -38 -57 -33 -5 1
-8 -7 -8 -18 0 -14 -5 -18 -17 -13 -10 4 -14 2 -10 -4 9 -15 -15 -43 -42 -48
-12 -2 -29 -9 -35 -15 -7 -5 -17 -6 -21 -2 -5 4 -5 1 -1 -5 4 -7 2 -13 -3 -13
-6 0 -11 -8 -11 -17 0 -10 -4 -14 -8 -8 -11 15 -26 15 -40 -1 -7 -8 -10 -14
-6 -14 3 0 1 -7 -6 -15 -10 -12 -10 -15 1 -15 9 -1 8 -4 -4 -11 -9 -6 -15 -14
-12 -20 4 -5 1 -9 -4 -9 -6 0 -12 8 -12 18 -1 16 -2 16 -6 0 -2 -10 -11 -18
-19 -18 -8 0 -13 -3 -11 -8 1 -4 -2 -8 -8 -10 -5 -2 -14 -10 -18 -18 -4 -8
-13 -14 -18 -14 -6 0 -23 -12 -39 -26 -15 -15 -47 -37 -71 -49 -25 -12 -43
-29 -43 -37 1 -10 -5 -14 -17 -11 -13 4 -19 0 -19 -11 0 -9 5 -16 12 -16 6 0
1 -11 -12 -25 -12 -13 -26 -22 -31 -20 -4 3 -10 -1 -12 -7 -3 -7 -6 1 -7 17
-1 17 -4 24 -7 17 -2 -6 -9 -10 -14 -6 -5 3 -8 2 -7 -3 4 -10 -39 -53 -53 -53
-5 0 -7 -4 -4 -10 3 -5 0 -7 -8 -4 -8 3 -17 -2 -21 -11 -3 -9 -10 -13 -16 -10
-5 3 -10 1 -10 -5 0 -6 -4 -8 -10 -5 -5 3 -10 1 -10 -4 0 -6 -7 -11 -14 -11
-8 0 -48 -15 -88 -34 -108 -50 -154 -66 -194 -66 -20 0 -33 -4 -29 -10 10 -16
-44 -24 -63 -9 -15 12 -16 12 -4 -2 13 -17 0 -25 -66 -44 -23 -7 -23 -6 -7 18
15 24 15 26 -2 36 -16 9 -15 10 9 11 21 0 25 4 21 20 -3 10 -10 18 -16 17 -7
-1 -11 11 -10 28 0 17 -4 33 -11 37 -8 6 -7 8 2 8 6 0 12 4 12 9 0 5 -9 7 -19
4 -14 -3 -19 0 -18 13 1 11 -6 18 -22 19 -13 1 -30 10 -37 21 -7 10 -18 24
-23 30 -6 8 -5 16 2 23 9 10 5 10 -17 1 -16 -6 -31 -8 -33 -6 -6 6 35 24 172
75 357 136 823 370 1109 558 93 62 391 274 539 385 64 48 121 88 126 88 6 0
22 13 38 30 34 35 32 35 30 10z m-402 -50 c-21 -22 -44 -40 -50 -40 -9 0 74
79 85 80 2 0 -14 -18 -35 -40z m-389 -6 c-20 -19 -42 -34 -48 -32 -7 3 8 18
33 36 57 40 60 40 15 -4z m318 -63 c-38 -34 -201 -170 -224 -186 -15 -11 -107
-80 -205 -154 -98 -74 -232 -169 -297 -212 -111 -72 -278 -166 -278 -155 0 2
37 26 83 52 77 44 223 143 397 269 76 55 100 72 223 161 65 47 170 128 229
178 15 13 24 27 20 31 -4 5 -2 5 4 2 6 -4 19 2 29 13 10 11 21 18 23 15 3 -3
1 -9 -4 -14z m-446 -41 c-7 -10 -16 -16 -20 -14 -14 9 -9 24 8 24 9 0 12 5 8
12 -4 7 -3 8 4 4 9 -5 9 -12 0 -26z m-38 -14 c0 -7 -102 -67 -107 -63 -2 3 20
19 49 36 56 33 58 33 58 27z m274 -25 c23 -26 17 -52 -16 -71 -35 -19 -62 -5
-66 36 -6 49 49 72 82 35z m411 -276 c0 -30 -39 -27 -43 3 -3 20 0 23 20 20
15 -2 23 -10 23 -23z m624 -55 c-13 -25 -28 -40 -40 -40 -13 0 -19 -7 -19 -24
0 -56 -527 -541 -860 -792 -277 -209 -631 -417 -820 -484 -91 -31 -125 -53
-63 -39 117 25 407 96 533 130 343 93 781 259 1140 432 162 78 502 310 794
541 104 82 131 100 99 64 -13 -13 -23 -30 -23 -38 0 -7 -3 -11 -6 -7 -4 3 -21
-5 -39 -19 -24 -18 -34 -35 -39 -64 -4 -23 -12 -40 -19 -40 -16 0 -67 -52 -67
-68 0 -7 5 -12 11 -12 5 0 8 3 6 8 -3 4 6 8 19 8 13 1 24 0 24 -2 0 -2 -51
-29 -112 -60 -189 -95 -324 -172 -528 -303 -210 -135 -441 -262 -695 -383
-282 -134 -667 -300 -888 -385 -66 -24 -158 -63 -205 -85 -48 -22 -142 -60
-210 -84 -67 -24 -160 -59 -206 -78 -99 -41 -414 -149 -606 -207 -204 -61
-276 -84 -374 -118 -49 -17 -91 -30 -93 -28 -5 6 39 24 107 45 36 11 121 40
190 65 69 24 165 59 214 76 49 18 101 38 115 45 14 8 80 32 146 54 66 22 145
51 175 65 30 13 80 35 110 47 119 48 159 71 153 85 -3 8 0 15 6 15 6 0 11 -4
11 -10 0 -17 50 8 76 39 13 16 43 37 66 46 24 10 37 20 31 22 -23 8 -14 23 15
23 33 0 122 31 122 43 0 4 -13 6 -30 3 -28 -4 -49 8 -36 22 4 3 23 7 43 9 46
3 52 10 21 24 -18 8 -24 17 -21 30 3 11 0 19 -6 19 -7 0 -9 -5 -5 -12 4 -6 -3
-4 -17 5 -29 21 -79 22 -145 3 -41 -12 -125 -27 -151 -27 -5 0 -16 -7 -25 -16
-9 -8 -22 -12 -28 -8 -20 12 -111 16 -148 5 -34 -9 -61 -6 -31 4 8 2 46 14 84
26 164 50 498 178 665 255 281 128 627 342 877 542 148 118 391 342 597 552
66 67 121 121 123 121 1 0 -7 -18 -18 -40z m-530 -27 c-28 -42 -312 -262 -513
-397 -227 -153 -643 -372 -966 -509 -170 -72 -478 -182 -486 -174 -3 2 16 12
41 21 39 15 72 39 48 35 -20 -3 -25 2 -13 16 9 11 10 18 1 28 -9 11 10 20 97
46 376 112 875 330 1175 513 195 119 438 286 552 380 39 32 71 58 73 58 1 0
-3 -8 -9 -17z m1287 -352 c-6 -9 -46 -22 -46 -15 0 3 10 9 23 14 29 11 29 11
23 1z m-56 -26 c0 -2 -10 -9 -22 -15 -22 -11 -22 -10 -4 4 21 17 26 19 26 11z
m-1170 -192 c0 -5 -12 -14 -28 -20 l-27 -13 24 20 c25 22 31 24 31 13z m370
-74 c0 -50 -42 -77 -69 -45 -9 11 -9 20 -2 34 19 36 71 44 71 11z m311 -59
c22 -12 26 -59 7 -78 -38 -38 -88 10 -68 63 10 27 29 31 61 15z m-506 -365
c-16 -8 -37 -14 -45 -14 -8 0 -1 6 15 14 17 7 37 13 45 13 8 0 2 -6 -15 -13z
m-2065 -117 c0 -4 -4 -8 -9 -8 -6 0 -12 4 -15 8 -3 5 1 9 9 9 8 0 15 -4 15 -9z
m124 -97 c3 -5 -1 -14 -8 -20 -16 -13 -32 2 -21 19 8 12 22 13 29 1z m1856
-71 c0 -5 -7 -10 -15 -10 -8 0 -15 5 -15 10 0 6 7 10 15 10 8 0 15 -4 15 -10z
m-1436 -85 c-4 -8 -8 -15 -10 -15 -2 0 -4 7 -4 15 0 8 4 15 10 15 5 0 7 -7 4
-15z m-126 -50 c-3 -3 -9 2 -12 12 -6 14 -5 15 5 6 7 -7 10 -15 7 -18z m-358
5 c0 -5 -9 -10 -21 -10 -11 0 -17 5 -14 10 3 6 13 10 21 10 8 0 14 -4 14 -10z
m55 0 c-3 -5 -12 -10 -18 -10 -7 0 -6 4 3 10 19 12 23 12 15 0z m349 -15 c-4
-8 -11 -15 -16 -15 -6 0 -5 6 2 15 7 8 14 15 16 15 2 0 1 -7 -2 -15z m-151
-32 c-7 -2 -13 -11 -13 -18 0 -18 -39 -30 -52 -17 -21 21 0 42 39 41 21 0 32
-3 26 -6z m-503 -108 c0 -8 5 -15 11 -15 8 0 8 -5 -1 -15 -16 -19 -39 -19 -46
0 -6 16 12 45 27 45 5 0 9 -7 9 -15z m945 -35 c-3 -5 -10 -10 -16 -10 -5 0 -9
5 -9 10 0 6 7 10 16 10 8 0 12 -4 9 -10z m-80 -110 c-11 -5 -29 -9 -40 -9
l-20 0 20 9 c11 5 29 9 40 9 l20 0 -20 -9z m-190 -46 c-49 -13 -94 -22 -100
-20 -12 3 143 44 170 44 11 0 -20 -11 -70 -24z m-140 -35 c-49 -15 -207 -40
-213 -35 -3 4 1 6 9 6 8 1 52 9 99 20 92 20 161 26 105 9z m-245 -49 c-14 -4
-34 -8 -45 -8 -16 0 -15 2 5 8 14 4 34 8 45 8 16 0 15 -2 -5 -8z m-85 -20
c-28 -12 -37 -12 -30 0 3 6 16 10 28 9 21 0 21 -1 2 -9z m-4625 -237 c131 -92
143 -105 30 -34 -55 35 -250 189 -250 197 0 3 28 -17 63 -45 34 -28 105 -81
157 -118z m4906 20 c-10 -10 -19 5 -10 18 6 11 8 11 12 0 2 -7 1 -15 -2 -18z
m-1237 -7 c-6 -6 -343 -116 -464 -152 -333 -98 -537 -146 -773 -185 -130 -21
-180 -20 -67 1 39 7 65 17 65 25 0 14 83 30 100 20 6 -4 32 1 58 9 26 9 79 18
117 20 39 3 115 19 170 36 55 17 116 33 135 36 19 2 46 8 60 13 14 5 81 26
150 47 69 20 193 58 275 85 138 44 186 56 174 45z m-1826 -23 c-7 -2 -21 -2
-30 0 -10 3 -4 5 12 5 17 0 24 -2 18 -5z m2661 -18 c3 -9 0 -15 -8 -15 -8 0
-16 7 -20 15 -3 9 0 15 8 15 8 0 16 -7 20 -15z m-4234 -145 c30 -20 76 -49
103 -64 26 -15 47 -29 47 -32 0 -11 -263 147 -290 174 -18 18 65 -28 140 -78z
m3946 53 c-10 -3 -28 -14 -40 -25 -12 -12 -15 -18 -8 -14 6 4 12 2 12 -4 0 -7
7 -5 16 4 8 9 20 14 25 11 5 -4 9 -1 9 6 0 10 3 10 11 2 8 -8 8 -17 0 -32 -16
-30 -61 -27 -84 5 -25 33 -8 54 42 53 20 -1 27 -4 17 -6z m-2206 -39 c0 -2 -7
-4 -15 -4 -8 0 -15 4 -15 10 0 5 7 7 15 4 8 -4 15 -8 15 -10z m-2061 -3 c8 -5
9 -11 3 -15 -5 -3 -15 1 -22 9 -14 16 -3 20 19 6z m2036 -61 c-3 -5 -11 -10
-16 -10 -6 0 -7 5 -4 10 3 6 11 10 16 10 6 0 7 -4 4 -10z m-457 -37 c4 -37
-10 -42 -46 -17 -18 12 -20 19 -11 35 17 33 53 21 57 -18z m-1357 -6 c-1 -12
-15 -9 -19 4 -3 6 1 10 8 8 6 -3 11 -8 11 -12z m3314 -37 c7 0 16 5 18 10 3 6
4 5 3 -2 -1 -7 -15 -14 -29 -16 -30 -4 -44 16 -32 46 6 14 9 13 17 -10 5 -16
16 -28 23 -28z m-2600 30 c3 -5 1 -10 -4 -10 -6 0 -11 5 -11 10 0 6 2 10 4 10
3 0 8 -4 11 -10z m-345 -66 c0 -7 -98 45 -104 55 -3 5 19 -4 49 -21 30 -16 55
-31 55 -34z m40 56 c0 -5 -4 -10 -10 -10 -5 0 -10 5 -10 10 0 6 5 10 10 10 6
0 10 -4 10 -10z m350 -10 c0 -5 -2 -10 -4 -10 -3 0 -8 5 -11 10 -3 6 -1 10 4
10 6 0 11 -4 11 -10z m3015 -30 c-3 -5 -11 -10 -16 -10 -6 0 -7 5 -4 10 3 6
11 10 16 10 6 0 7 -4 4 -10z m-2600 -20 c13 -6 15 -9 5 -9 -8 0 -22 4 -30 9
-18 12 -2 12 25 0z m-1534 -17 c13 -16 12 -17 -3 -4 -17 13 -22 21 -14 21 2 0
10 -8 17 -17z m4972 10 c-7 -2 -19 -2 -25 0 -7 3 -2 5 12 5 14 0 19 -2 13 -5z
m-4188 -13 c3 -6 -1 -7 -9 -4 -18 7 -21 14 -7 14 6 0 13 -4 16 -10z m935 -20
c290 -61 327 -68 465 -89 384 -56 667 -75 1050 -68 461 8 679 29 1289 123 192
29 351 52 353 50 16 -15 -559 -131 -854 -172 -112 -15 -202 -29 -200 -30 1 -2
24 -4 50 -5 26 -2 47 -6 47 -10 0 -11 -67 -28 -105 -27 -48 2 -200 -45 -200
-61 0 -7 -10 -17 -22 -22 -17 -6 -26 -3 -37 12 -13 19 -17 20 -51 8 -27 -10
-40 -11 -54 -2 -15 9 -25 9 -45 0 -14 -7 -26 -15 -26 -19 0 -4 -15 -4 -32 -2
-22 4 -40 0 -53 -11 -11 -9 -15 -14 -10 -12 6 3 21 -1 35 -9 20 -12 21 -14 4
-9 -11 3 -29 -1 -39 -9 -13 -10 -25 -11 -37 -5 -9 5 -27 5 -40 1 -30 -11 -60
-4 -52 11 5 9 4 9 -6 0 -7 -6 -19 -9 -26 -6 -8 3 -14 1 -14 -5 0 -5 9 -12 20
-15 29 -7 26 -45 -4 -57 -43 -16 -66 -2 -66 39 -1 30 -2 33 -11 18 -6 -10 -8
-21 -5 -25 9 -8 -54 -33 -65 -26 -8 5 -8 18 1 59 5 21 0 36 -10 30 -6 -4 -8
-10 -5 -15 5 -8 -34 -5 -62 5 -7 2 -13 0 -13 -6 0 -6 -7 -6 -20 1 -11 6 -20 7
-20 1 0 -15 -32 -22 -46 -10 -8 6 -14 8 -15 3 -4 -53 -13 -60 -42 -41 -18 12
-27 13 -36 4 -8 -8 -11 -5 -11 14 -1 22 -2 21 -15 -9 -8 -18 -22 -35 -30 -39
-20 -7 -85 22 -85 38 0 6 -7 9 -15 5 -9 -3 -15 0 -15 10 0 8 -5 12 -10 9 -6
-3 -17 1 -26 9 -8 9 -28 16 -44 16 -16 0 -32 5 -35 10 -3 6 -19 10 -35 10 -16
0 -36 7 -45 16 -12 12 -19 13 -29 4 -15 -11 -14 -12 -77 41 -11 9 -33 22 -49
29 -17 7 -30 18 -30 24 0 6 -5 4 -10 -4 -8 -12 -10 -9 -10 13 0 17 -5 27 -15
27 -8 0 -15 5 -15 11 0 8 -5 7 -16 -2 -12 -10 -20 -10 -35 -1 -13 8 -19 9 -19
1 0 -6 -6 -9 -12 -6 -7 2 -12 10 -10 16 1 7 -2 10 -8 6 -6 -4 -23 5 -38 20
-14 14 -20 25 -13 23 8 -2 15 2 18 8 3 10 -162 54 -204 54 -11 0 -23 4 -29 10
-5 5 -44 15 -87 22 -48 7 -77 16 -77 24 0 7 -6 15 -12 17 -30 12 18 5 152 -23z
m-360 10 c0 -5 -4 -10 -10 -10 -5 0 -10 5 -10 10 0 6 5 10 10 10 6 0 10 -4 10
-10z m-1241 -70 c11 -8 21 -18 21 -23 0 -4 -27 13 -60 38 -67 52 -81 70 -21
28 21 -16 48 -35 60 -43z m1984 63 c-7 -2 -19 -2 -25 0 -7 3 -2 5 12 5 14 0
19 -2 13 -5z m875 -25 c31 -31 0 -85 -33 -58 -18 15 -20 56 -2 63 19 8 22 8
35 -5z m-1990 -16 c6 -18 -15 -14 -22 4 -4 10 -1 14 6 12 6 -2 14 -10 16 -16z
m-1173 -32 c3 -5 1 -10 -4 -10 -6 0 -11 5 -11 10 0 6 2 10 4 10 3 0 8 -4 11
-10z m3865 6 c0 -11 -19 -15 -25 -6 -3 5 1 10 9 10 9 0 16 -2 16 -4z m-3370
-16 c0 -5 -2 -10 -4 -10 -3 0 -8 5 -11 10 -3 6 -1 10 4 10 6 0 11 -4 11 -10z
m1270 -16 c0 -8 -4 -12 -10 -9 -5 3 -10 10 -10 16 0 5 5 9 10 9 6 0 10 -7 10
-16z m-1384 -26 l29 -33 -30 25 c-16 14 -34 28 -39 32 -6 5 -6 8 0 8 6 0 23
-15 40 -32z m1744 6 c0 -9 -5 -14 -12 -12 -18 6 -21 28 -4 28 9 0 16 -7 16
-16z m-75 -24 c-5 -8 -11 -8 -21 1 -12 10 -12 14 -2 20 16 10 33 -5 23 -21z
m-605 5 c0 -8 -4 -15 -10 -15 -5 0 -10 7 -10 15 0 8 5 15 10 15 6 0 10 -7 10
-15z m-970 -62 c0 -8 -38 17 -51 33 -9 11 -2 9 19 -6 17 -13 32 -25 32 -27z
m1292 32 c0 -5 -5 -11 -11 -13 -6 -2 -11 4 -11 13 0 9 5 15 11 13 6 -2 11 -8
11 -13z m346 3 c-5 -15 -48 -24 -48 -10 0 14 12 22 33 22 10 0 17 -5 15 -12z
m-1008 -8 c0 -5 -9 -10 -20 -10 -11 0 -20 5 -20 10 0 6 9 10 20 10 11 0 20 -4
20 -10z m70 -10 c0 -5 -4 -10 -10 -10 -5 0 -10 5 -10 10 0 6 5 10 10 10 6 0
10 -4 10 -10z m605 -40 c3 -5 1 -10 -4 -10 -6 0 -11 5 -11 10 0 6 2 10 4 10 3
0 8 -4 11 -10z m-1229 -38 c-4 -3 -14 2 -24 12 -16 18 -16 18 6 6 13 -6 21
-14 18 -18z m1514 -32 c0 -13 -7 -20 -20 -20 -19 0 -27 20 -13 33 13 14 33 6
33 -13z m2078 -3 c3 -14 -1 -18 -20 -15 -12 2 -24 11 -26 21 -3 14 1 18 20 15
12 -2 24 -11 26 -21z m-1990 -5 c2 -7 -3 -12 -12 -12 -9 0 -16 7 -16 16 0 17
22 14 28 -4z m-618 -12 c8 -5 12 -11 9 -14 -3 -3 -14 1 -25 9 -21 16 -8 20 16
5z m803 -5 c4 -8 2 -17 -4 -21 -12 -7 -41 15 -33 27 8 14 31 11 37 -6z m2074
-11 c5 -15 -28 -27 -40 -15 -5 5 -6 14 -2 21 8 13 37 9 42 -6z m-3347 2 c0 -3
-4 -8 -10 -11 -5 -3 -10 -1 -10 4 0 6 5 11 10 11 6 0 10 -2 10 -4z m450 -26
c0 -5 -4 -10 -10 -10 -5 0 -10 5 -10 10 0 6 5 10 10 10 6 0 10 -4 10 -10z
m550 0 c0 -5 -4 -10 -10 -10 -5 0 -10 5 -10 10 0 6 5 10 10 10 6 0 10 -4 10
-10z m-1020 -20 c0 -5 -2 -10 -4 -10 -3 0 -8 5 -11 10 -3 6 -1 10 4 10 6 0 11
-4 11 -10z m30 0 c0 -5 -4 -10 -10 -10 -5 0 -10 5 -10 10 0 6 5 10 10 10 6 0
10 -4 10 -10z m275 -10 c0 -22 -39 -19 -43 3 -3 15 1 18 20 15 12 -2 23 -10
23 -18z m-410 0 c3 -5 1 -10 -4 -10 -6 0 -11 5 -11 10 0 6 2 10 4 10 3 0 8 -4
11 -10z m2725 0 c0 -5 -7 -10 -16 -10 -8 0 -12 5 -9 10 3 6 10 10 16 10 5 0 9
-4 9 -10z m1380 -10 c-8 -5 -17 -7 -19 -4 -3 3 1 9 9 14 8 5 17 7 19 4 3 -3
-1 -9 -9 -14z m-1523 -6 c3 -9 0 -19 -6 -23 -9 -6 -5 -13 12 -24 29 -19 45
-81 26 -103 -13 -15 -66 -19 -87 -5 -22 13 -27 84 -8 100 9 7 16 21 16 30 0
18 18 41 32 41 5 0 11 -7 15 -16z m-1062 -4 c3 -5 -1 -10 -9 -10 -9 0 -16 5
-16 10 0 6 4 10 9 10 6 0 13 -4 16 -10z m1105 -4 c0 -11 -19 -15 -25 -6 -3 5
1 10 9 10 9 0 16 -2 16 -4z m-1777 -71 c4 -8 2 -17 -4 -21 -15 -9 -39 3 -39
21 0 19 36 20 43 0z m1982 -5 c10 -11 13 -20 7 -20 -7 0 -12 5 -12 10 0 6 -5
9 -11 8 -6 -2 -14 3 -16 10 -7 19 12 14 32 -8z m546 -3 c-13 -13 -26 -3 -16
12 3 6 11 8 17 5 6 -4 6 -10 -1 -17z m-466 3 c3 -5 1 -10 -4 -10 -6 0 -11 5
-11 10 0 6 2 10 4 10 3 0 8 -4 11 -10z m700 0 c3 -5 1 -10 -4 -10 -6 0 -11 5
-11 10 0 6 2 10 4 10 3 0 8 -4 11 -10z m-2175 -46 c0 -17 -22 -14 -28 4 -2 7
3 12 12 12 9 0 16 -7 16 -16z m170 6 c0 -5 -7 -10 -15 -10 -8 0 -15 5 -15 10
0 6 7 10 15 10 8 0 15 -4 15 -10z m-560 -25 c10 -12 10 -15 -4 -15 -9 0 -16 7
-16 15 0 8 2 15 4 15 2 0 9 -7 16 -15z m898 -3 c2 -7 -6 -12 -17 -12 -21 0
-27 11 -14 24 9 9 26 2 31 -12z m-1218 -2 c0 -5 -2 -10 -4 -10 -3 0 -8 5 -11
10 -3 6 -1 10 4 10 6 0 11 -4 11 -10z m690 -20 c8 -5 11 -10 5 -10 -5 0 -17 5
-25 10 -8 5 -10 10 -5 10 6 0 17 -5 25 -10z m1940 -11 c0 -5 -7 -9 -15 -9 -9
0 -12 6 -9 15 6 15 24 11 24 -6z m-210 -8 c0 -5 -11 -11 -25 -13 -24 -5 -32 2
-18 15 9 10 43 8 43 -2z m-2320 -37 c0 -9 -5 -14 -12 -12 -18 6 -21 28 -4 28
9 0 16 -7 16 -16z m1352 -16 c-9 -9 -12 -7 -12 12 0 19 3 21 12 12 9 -9 9 -15
0 -24z m-847 12 c3 -5 1 -10 -4 -10 -6 0 -11 5 -11 10 0 6 2 10 4 10 3 0 8 -4
11 -10z m1361 -4 c17 -13 18 -16 3 -31 -21 -21 -49 -9 -49 21 0 27 17 31 46
10z m-1261 -136 c3 -5 2 -10 -4 -10 -5 0 -13 5 -16 10 -3 6 -2 10 4 10 5 0 13
-4 16 -10z m1229 -92 c-3 -4 -14 -8 -25 -8 -11 0 -18 4 -15 8 2 4 14 8 25 8
11 0 17 -4 15 -8z"/>
<path d="M7965 7860 c-3 -5 -2 -10 4 -10 5 0 13 5 16 10 3 6 2 10 -4 10 -5 0
-13 -4 -16 -10z"/>
<path d="M9950 7890 c-8 -5 -10 -10 -5 -10 6 0 17 5 25 10 8 5 11 10 5 10 -5
0 -17 -5 -25 -10z"/>
<path d="M7950 6947 c0 -4 -10 -6 -22 -3 -22 3 -136 -40 -127 -48 6 -6 141 30
182 48 l32 14 -32 -1 c-18 -1 -33 -5 -33 -10z"/>
<path d="M7738 6873 c7 -3 16 -2 19 1 4 3 -2 6 -13 5 -11 0 -14 -3 -6 -6z"/>
<path d="M6656 6001 c-4 -5 -2 -12 3 -15 5 -4 12 -2 15 3 4 5 2 12 -3 15 -5 4
-12 2 -15 -3z"/>
<path d="M5530 5490 c0 -5 5 -10 10 -10 6 0 10 5 10 10 0 6 -4 10 -10 10 -5 0
-10 -4 -10 -10z"/>
<path d="M5480 5450 c-23 -7 -23 -8 -3 -9 12 -1 29 -4 39 -8 11 -4 15 -2 12 7
-6 18 -17 20 -48 10z"/>
<path d="M9564 10276 c-9 -24 12 -44 28 -28 10 10 8 16 -5 29 -15 15 -17 15
-23 -1z"/>
<path d="M6842 9943 c-23 -23 -24 -29 -20 -128 3 -82 7 -107 22 -124 10 -11
24 -17 32 -14 11 4 9 9 -7 22 -17 13 -21 31 -25 106 -6 99 6 138 43 143 44 6
55 -22 51 -132 -2 -55 -7 -109 -12 -118 -6 -13 -4 -18 7 -18 23 0 30 33 29
143 0 111 -10 132 -65 140 -23 3 -37 -2 -55 -20z"/>
<path d="M7916 9934 c-11 -28 -7 -244 5 -244 6 0 9 41 8 119 -1 66 2 124 5
130 4 6 3 11 -2 11 -6 0 -13 -7 -16 -16z"/>
<path d="M8029 9945 c-3 -6 -3 -66 -1 -134 5 -145 22 -146 21 -1 -1 94 -10
154 -20 135z"/>
<path d="M7089 9923 c-9 -19 3 -243 12 -238 6 4 7 52 3 123 -6 115 -9 131 -15
115z"/>
<path d="M7321 9799 c1 -90 4 -111 8 -75 8 55 6 185 -3 194 -3 3 -5 -51 -5
-119z"/>
<path d="M8720 9886 c0 -17 7 -25 25 -28 22 -5 23 -3 12 16 -6 12 -10 24 -9
29 1 4 -5 7 -13 7 -9 0 -15 -9 -15 -24z"/>
<path d="M9047 9903 c-4 -3 -7 -17 -7 -30 0 -16 6 -23 19 -23 21 0 36 26 20
35 -5 4 -7 11 -4 16 7 10 -18 13 -28 2z"/>
<path d="M8222 9795 c-11 -13 -10 -15 7 -15 10 0 21 7 25 15 7 19 -15 19 -32
0z"/>
<path d="M8236 9713 c-6 -14 -5 -15 5 -6 7 7 10 15 7 18 -3 3 -9 -2 -12 -12z"/>
<path d="M6149 9553 c-19 -23 -24 -199 -7 -233 19 -35 82 -37 115 -4 20 20 23
33 23 103 0 80 -11 129 -33 143 -22 14 -84 9 -98 -9z m85 -25 c21 -30 21 -148
1 -188 -20 -38 -52 -40 -65 -4 -17 44 -12 175 7 196 21 24 39 23 57 -4z"/>
<path d="M6405 9550 c-21 -14 -25 -20 -13 -20 16 0 18 -15 20 -142 3 -119 5
-143 18 -143 13 0 15 25 18 154 1 85 -1 158 -5 162 -5 5 -22 0 -38 -11z"/>
<path d="M5979 9558 c-3 -11 -4 -226 -1 -235 2 -7 8 -13 13 -13 5 0 9 56 9
125 0 77 -4 125 -10 125 -5 0 -10 -1 -11 -2z"/>
<path d="M6607 9540 c-32 -25 -35 -40 -7 -33 19 5 20 0 20 -137 0 -109 3 -141
13 -138 14 5 23 271 9 307 l-8 22 -27 -21z"/>
<path d="M6824 9519 c-16 -18 -19 -36 -19 -134 0 -132 11 -155 74 -155 66 0
81 27 81 147 0 118 -18 157 -76 161 -31 2 -44 -2 -60 -19z m91 -28 c12 -38 9
-186 -4 -209 -20 -37 -53 -25 -69 23 -15 45 -11 149 7 183 15 28 57 30 66 3z"/>
<path d="M7673 9513 c-27 -41 -26 -242 1 -272 26 -29 86 -29 112 0 16 18 19
37 19 141 0 114 -1 121 -24 139 -35 29 -87 25 -108 -8z m95 -15 c16 -16 16
-198 0 -233 -9 -21 -18 -25 -42 -23 -26 3 -31 8 -39 43 -9 42 -4 177 8 208 8
20 55 23 73 5z"/>
<path d="M7077 9512 c-18 -20 -23 -37 -8 -28 16 10 21 -24 21 -140 0 -95 3
-114 15 -114 13 0 15 23 15 150 0 158 -5 174 -43 132z"/>
<path d="M7301 9517 c-32 -16 -42 -42 -12 -32 20 6 21 3 22 -77 3 -185 5 -198
27 -184 11 6 16 263 6 289 -7 20 -11 21 -43 4z"/>
<path d="M7932 9521 c-10 -6 -13 -38 -11 -132 2 -137 7 -178 19 -158 8 11 15
299 8 299 -2 0 -9 -4 -16 -9z"/>
<path d="M8120 9469 c0 -60 8 -61 16 -2 3 25 1 44 -5 48 -7 4 -11 -11 -11 -46z"/>
<path d="M7519 9503 c-1 -21 3 -211 6 -233 2 -14 4 -32 5 -40 1 -8 5 -4 9 10
9 36 1 270 -10 270 -5 0 -9 -3 -10 -7z"/>
<path d="M8730 9480 c0 -5 5 -10 11 -10 5 0 7 5 4 10 -3 6 -8 10 -11 10 -2 0
-4 -4 -4 -10z"/>
<path d="M8760 9481 c0 -6 4 -13 10 -16 6 -3 7 1 4 9 -7 18 -14 21 -14 7z"/>
<path d="M8282 9460 c0 -14 2 -19 5 -12 2 6 2 18 0 25 -3 6 -5 1 -5 -13z"/>
<path d="M8122 9390 c0 -14 2 -19 5 -12 2 6 2 18 0 25 -3 6 -5 1 -5 -13z"/>
<path d="M3043 9280 c0 -30 2 -43 4 -27 2 15 2 39 0 55 -2 15 -4 2 -4 -28z"/>
<path d="M8263 9267 c0 -8 6 -14 13 -14 7 0 11 4 8 8 -2 4 2 10 8 12 7 3 4 6
-8 6 -11 1 -21 -5 -21 -12z"/>
<path d="M2978 9174 c-61 -41 -83 -64 -60 -64 12 0 126 46 148 59 17 11 17 11
-5 5 -22 -6 -23 -4 -17 20 3 14 5 26 4 26 -2 0 -33 -21 -70 -46z"/>
<path d="M5899 9201 c-22 -17 -24 -28 -27 -118 -3 -88 -2 -101 18 -126 17 -21
30 -27 59 -27 63 0 75 17 79 110 5 96 -15 164 -51 174 -37 10 -54 7 -78 -13z
m82 -28 c10 -11 14 -44 14 -103 0 -97 -11 -120 -55 -120 -23 0 -29 5 -34 31
-12 61 -7 164 10 187 18 26 46 29 65 5z"/>
<path d="M6140 9184 l-25 -24 23 0 c22 0 22 -2 22 -127 0 -121 10 -180 25
-142 10 26 1 312 -10 315 -5 2 -21 -8 -35 -22z"/>
<path d="M6359 9152 c-13 -15 -13 -20 -2 -31 8 -7 11 -21 7 -33 -3 -11 -3 -67
1 -124 5 -80 10 -104 21 -104 12 0 14 26 12 152 -3 154 -9 175 -39 140z"/>
<path d="M8480 9149 c0 -18 2 -19 15 -9 15 12 12 30 -6 30 -5 0 -9 -10 -9 -21z"/>
<path d="M6537 9148 c-9 -7 -20 -31 -25 -53 -11 -52 1 -199 17 -219 9 -10 30
-16 60 -16 62 0 73 19 79 140 4 92 4 97 -23 128 -29 35 -76 43 -108 20z m77
-31 c16 -12 19 -28 18 -106 -1 -67 -5 -100 -17 -117 -43 -66 -91 26 -79 153 7
80 33 103 78 70z"/>
<path d="M6798 9134 c-2 -9 -1 -75 2 -147 4 -92 9 -132 18 -135 9 -3 12 31 12
147 0 124 -3 151 -14 151 -8 0 -16 -7 -18 -16z"/>
<path d="M3990 9133 c-399 -27 -826 -94 -1060 -167 l-45 -14 40 -7 c33 -7 36
-9 20 -16 -13 -5 -15 -8 -5 -8 15 0 46 6 250 54 262 61 685 118 1007 137 111
7 200 16 197 20 -5 7 -301 8 -404 1z"/>
<path d="M6975 9103 c-24 -27 -25 -28 -5 -31 23 -4 22 -1 20 -98 -1 -76 7
-127 20 -119 12 7 13 275 1 275 -6 0 -22 -12 -36 -27z"/>
<path d="M7413 9110 c-36 -15 -47 -48 -47 -145 0 -107 10 -132 61 -141 73 -14
95 25 91 160 -3 89 -6 100 -27 117 -25 21 -44 23 -78 9z m67 -39 c11 -21 12
-151 1 -190 -9 -35 -44 -45 -68 -19 -15 16 -18 37 -18 107 0 96 11 121 51 121
13 0 28 -9 34 -19z"/>
<path d="M7840 9112 c-32 -10 -40 -35 -39 -121 1 -95 16 -78 18 20 1 41 6 61
22 78 23 24 22 31 -1 23z"/>
<path d="M7875 9110 c-3 -5 1 -10 10 -10 9 0 13 5 10 10 -3 6 -8 10 -10 10 -2
0 -7 -4 -10 -10z"/>
<path d="M7205 9090 c-15 -17 -16 -20 -3 -20 22 0 29 -38 28 -134 -2 -109 -1
-116 9 -116 4 0 9 65 10 145 2 119 0 145 -12 145 -8 0 -22 -9 -32 -20z"/>
<path d="M7642 9090 c-26 -22 -28 -32 -4 -28 15 3 17 -7 18 -87 1 -129 3 -145
14 -145 12 0 14 266 2 273 -4 3 -17 -3 -30 -13z"/>
<path d="M2565 9011 c-139 -71 -243 -131 -203 -118 10 4 20 2 23 -4 6 -9 32
-7 70 6 50 17 261 122 277 138 10 9 23 17 28 17 6 0 10 5 10 10 0 6 -8 10 -18
10 -10 0 -22 4 -27 9 -6 5 -73 -24 -160 -68z"/>
<path d="M2740 9030 c-9 -6 -10 -10 -3 -10 6 0 15 5 18 10 8 12 4 12 -15 0z"/>
<path d="M7801 8890 c0 -8 4 -22 9 -30 12 -18 12 -2 0 25 -6 13 -9 15 -9 5z"/>
<path d="M6205 8750 c-3 -5 1 -10 9 -10 9 0 16 5 16 10 0 6 -4 10 -9 10 -6 0
-13 -4 -16 -10z"/>
<path d="M1396 8709 c-35 -8 -136 -74 -136 -89 0 -3 -14 -21 -31 -39 -48 -53
-69 -100 -71 -161 l-1 -55 -7 45 c-6 41 -7 39 -8 -28 -1 -47 2 -71 8 -67 6 4
9 -10 9 -37 l-2 -43 -8 35 c-4 20 -5 -19 -2 -90 3 -69 9 -126 14 -128 4 -2 5
-10 2 -18 -3 -9 14 -32 43 -61 27 -26 38 -38 24 -27 l-25 19 19 -22 c10 -12
21 -21 25 -20 12 4 110 -80 103 -88 -4 -5 -2 -5 4 -2 6 4 22 -2 34 -13 22 -19
39 -20 367 -20 l344 0 24 -26 c41 -44 44 -114 7 -156 -12 -15 -13 -18 -1 -18
8 -1 3 -7 -11 -15 -21 -12 -104 -14 -479 -15 -424 0 -453 -1 -447 -17 4 -10 3
-14 -1 -9 -4 4 -42 -63 -84 -151 l-76 -158 586 -3 c662 -2 643 -4 729 73 30
27 59 66 73 97 22 47 24 67 24 188 l0 136 -75 118 c-41 66 -102 162 -135 215
l-61 96 -144 3 c-98 1 -140 -1 -130 -8 9 -6 10 -10 3 -10 -6 0 -15 5 -18 10
-3 6 -12 10 -18 10 -7 0 -6 -4 3 -10 10 -6 -10 -9 -60 -9 -41 -1 -84 -3 -95
-5 -11 -3 -23 -5 -27 -5 -5 -1 -8 -8 -8 -17 0 -9 -5 -13 -12 -9 -7 4 5 -9 27
-30 29 -26 33 -33 15 -24 -45 21 -160 101 -160 111 0 6 -9 21 -20 35 -14 18
-20 41 -20 79 0 64 14 98 47 113 16 8 179 11 523 11 393 0 500 3 500 13 0 8 4
7 10 -3 25 -39 -11 49 -49 121 -5 8 -23 50 -41 93 -18 42 -35 75 -37 72 -3 -3
-15 1 -27 9 -17 13 -95 15 -511 14 -269 -1 -508 -5 -529 -10z m-41 -1159 c3
-6 -4 -10 -17 -10 -18 0 -20 2 -8 10 19 12 18 12 25 0z"/>
<path d="M7500 8700 c0 -5 5 -10 11 -10 5 0 7 5 4 10 -3 6 -8 10 -11 10 -2 0
-4 -4 -4 -10z"/>
<path d="M3567 8528 c-96 -163 -251 -437 -358 -633 l-104 -190 -3 -149 c-3
-104 0 -146 7 -141 6 3 11 10 11 16 0 5 21 55 46 111 88 195 354 808 404 933
16 39 36 87 44 108 27 61 10 42 -47 -55z"/>
<path d="M7061 8294 c0 -11 3 -14 6 -6 3 7 2 16 -1 19 -3 4 -6 -2 -5 -13z"/>
<path d="M5368 7843 c12 -2 32 -2 45 0 12 2 2 4 -23 4 -25 0 -35 -2 -22 -4z"/>
<path d="M5403 7833 c-35 -3 -43 -8 -43 -24 0 -10 -5 -19 -11 -19 -5 0 -7 4
-4 10 3 5 0 7 -9 4 -22 -8 -66 -70 -66 -91 0 -12 3 -14 8 -6 5 9 11 6 21 -9
12 -19 11 -20 -6 -14 -14 6 -15 4 -6 -5 17 -17 113 -25 113 -10 0 7 8 10 18 7
12 -4 25 2 38 16 l19 23 -24 -20 -24 -20 11 21 c6 12 8 25 4 29 -4 5 -2 5 4 2
8 -4 14 6 18 28 4 20 11 33 16 30 4 -3 6 4 3 16 -3 11 -11 18 -19 15 -7 -3
-16 0 -20 6 -5 7 -2 8 6 3 9 -5 11 -4 6 3 -4 7 -8 11 -9 10 -1 -1 -21 -3 -44
-5z"/>
<path d="M5299 7803 c-13 -16 -12 -17 4 -4 9 7 17 15 17 17 0 8 -8 3 -21 -13z"/>
<path d="M3600 7782 c0 -11 59 -216 104 -364 42 -136 42 -139 17 -275 l-18
-103 86 0 87 0 18 112 c10 62 24 125 32 141 8 15 55 82 104 148 49 67 87 126
83 132 -3 5 -1 7 5 3 11 -7 59 63 54 79 -2 6 0 7 4 2 12 -11 82 94 76 115 -4
15 -15 18 -78 18 -44 0 -76 -5 -80 -12 -5 -7 -3 -8 5 -3 10 5 9 2 0 -13 -7
-12 -16 -19 -20 -16 -7 4 -22 -28 -24 -48 0 -3 -4 -10 -9 -15 -5 -5 -6 -2 -2
7 4 8 -2 4 -13 -10 -20 -24 -25 -36 -22 -53 1 -5 -2 -6 -7 -3 -8 5 -104 -131
-118 -167 -3 -9 -9 -17 -13 -17 -3 0 -24 74 -45 165 -22 91 -44 165 -48 165
-5 0 -6 5 -3 10 4 6 -27 10 -84 10 -50 0 -91 -4 -91 -8z"/>
<path d="M2762 7480 l-182 -274 0 -228 c0 -145 4 -228 10 -228 6 0 10 4 10 8
0 9 85 105 239 271 58 62 111 123 118 135 9 16 11 81 7 256 -4 129 -9 257 -13
284 l-6 49 -183 -273z"/>
<path d="M4340 7602 c0 -6 -6 -9 -14 -6 -19 7 -86 -12 -113 -34 -26 -19 -49
-112 -29 -112 7 0 38 7 69 15 71 18 167 19 191 2 12 -9 17 -23 14 -47 l-3 -35
-85 -8 c-166 -15 -250 -59 -286 -152 -21 -57 -15 -138 13 -167 44 -44 170 -36
257 17 l56 34 0 -35 0 -34 69 0 70 0 6 48 c3 26 10 67 15 92 6 25 19 100 30
167 17 104 18 126 7 160 -7 21 -18 37 -25 36 -7 -2 -11 3 -9 9 4 23 -74 51
-155 56 -53 3 -78 1 -78 -6z m84 -355 c-9 -45 -24 -65 -60 -82 -41 -19 -108
-19 -123 -1 -19 23 -9 67 19 88 24 17 144 40 163 30 5 -2 5 -18 1 -35z"/>
<path d="M4885 7600 c-3 -5 -13 -6 -22 -3 -12 5 -14 3 -8 -7 5 -9 4 -11 -3 -6
-22 13 -84 -27 -114 -73 -23 -36 -28 -54 -24 -81 4 -26 3 -30 -4 -15 -7 17 -9
16 -9 -10 -1 -46 33 -94 85 -116 24 -11 55 -18 67 -15 12 3 16 3 8 0 -8 -4 5
-13 35 -23 60 -20 69 -47 28 -80 -35 -27 -119 -28 -204 -2 -44 14 -62 16 -65
8 -12 -33 -25 -109 -20 -117 20 -32 206 -40 312 -13 112 28 174 114 158 218
-9 63 -43 90 -150 117 -88 23 -90 24 -93 55 -3 28 1 33 22 39 14 3 26 10 26
14 0 4 33 1 73 -5 39 -7 76 -11 81 -8 4 3 13 -1 18 -8 7 -11 11 -11 15 -1 2 6
8 10 13 7 14 -8 24 95 11 108 -7 7 -41 11 -84 11 -51 -1 -63 0 -42 6 25 6 21
8 -25 9 -33 1 -62 -4 -69 -11 -11 -10 -13 -10 -7 0 8 14 0 17 -9 2z m202 -16
c-3 -3 -12 -4 -19 -1 -8 3 -5 6 6 6 11 1 17 -2 13 -5z"/>
<path d="M5710 7601 c24 -7 23 -8 -11 -14 -20 -4 -45 -5 -55 -1 -16 5 -16 4
-4 -5 8 -6 12 -11 8 -11 -3 0 -14 -3 -24 -7 -12 -4 -15 -3 -10 5 5 8 1 10 -10
5 -12 -4 -14 -8 -5 -11 12 -4 -64 -77 -80 -77 -4 0 -11 -4 -16 -9 -5 -5 -2 -6
6 -1 9 5 12 3 9 -6 -3 -8 -11 -13 -17 -11 -6 1 -10 -1 -10 -5 3 -20 -2 -34
-10 -28 -20 12 -58 -192 -45 -248 7 -36 28 -70 36 -61 3 3 5 -3 5 -12 -1 -12
14 -27 43 -43 40 -23 56 -26 145 -26 100 1 206 23 221 46 4 7 8 35 10 64 l3
53 -52 -20 c-32 -12 -80 -20 -129 -21 -66 -2 -80 1 -98 18 -21 22 -42 79 -32
89 3 3 26 7 51 8 l46 1 -45 7 c-27 4 23 7 120 7 150 -1 156 -1 60 -7 l-105 -6
106 -2 c58 -1 108 0 111 3 3 3 2 23 -2 45 -4 22 -3 40 1 40 5 0 9 21 9 46 0
27 -4 43 -10 39 -6 -4 -10 8 -10 30 0 20 -5 45 -10 56 -13 23 -84 59 -119 60
l-26 1 25 8 25 8 -27 1 c-14 1 -29 -5 -32 -11 -5 -10 -7 -10 -12 0 -3 6 -18
12 -32 11 l-27 -1 25 -7z m165 -51 c3 -5 -1 -10 -10 -10 -9 0 -13 5 -10 10 3
6 8 10 10 10 2 0 7 -4 10 -10z m-115 -45 c-16 -19 -1 -19 27 0 14 10 24 12 28
5 3 -5 0 -10 -7 -10 -8 0 -9 -3 -3 -8 32 -22 50 -140 20 -129 -8 4 -17 2 -21
-4 -4 -6 -12 -5 -22 3 -11 9 -14 10 -8 1 5 -9 0 -11 -21 -7 -15 3 -55 6 -87 7
-56 2 -60 4 -63 28 -4 30 32 83 50 72 7 -3 9 -3 5 2 -16 17 45 52 96 54 15 1
16 -2 6 -14z m-283 -117 c-3 -8 -6 -5 -6 6 -1 11 2 17 5 13 3 -3 4 -12 1 -19z
m-20 -80 c-3 -8 -6 -5 -6 6 -1 11 2 17 5 13 3 -3 4 -12 1 -19z"/>
<path d="M5615 7419 c-4 -6 -5 -12 -2 -15 2 -3 7 2 10 11 7 17 1 20 -8 4z"/>
<path d="M5822 7405 c0 -16 2 -22 5 -12 2 9 2 23 0 30 -3 6 -5 -1 -5 -18z"/>
<path d="M6393 7603 c9 -2 23 -2 30 0 6 3 -1 5 -18 5 -16 0 -22 -2 -12 -5z"/>
<path d="M1318 7583 c23 -2 61 -2 85 0 23 2 4 4 -43 4 -47 0 -66 -2 -42 -4z"/>
<path d="M1657 7583 c79 -2 207 -2 285 0 79 1 15 3 -142 3 -157 0 -221 -2
-143 -3z"/>
<path d="M5265 7506 c-12 -52 -23 -80 -28 -73 -4 7 -5 -6 -1 -27 5 -30 4 -37
-6 -31 -10 6 -12 0 -8 -23 3 -18 0 -29 -5 -25 -6 4 -8 -5 -5 -20 3 -15 2 -28
-2 -29 -7 -3 -50 -196 -50 -223 0 -12 16 -15 78 -15 l79 0 16 98 c10 53 14
108 11 122 -5 20 -4 22 6 10 9 -12 10 -7 5 23 -3 20 -2 37 2 37 4 0 9 24 9 52
1 29 4 81 7 116 4 36 2 62 -3 62 -6 0 -10 7 -10 15 0 11 -11 15 -38 15 l-38 0
-19 -84z"/>
<path d="M5544 7528 l-29 -33 33 29 c30 28 37 36 29 36 -2 0 -16 -15 -33 -32z"/>
<path d="M5241 7494 c0 -11 3 -14 6 -6 3 7 2 16 -1 19 -3 4 -6 -2 -5 -13z"/>
<path d="M5391 7484 c0 -11 3 -14 6 -6 3 7 2 16 -1 19 -3 4 -6 -2 -5 -13z"/>
<path d="M5951 7454 c0 -11 3 -14 6 -6 3 7 2 16 -1 19 -3 4 -6 -2 -5 -13z"/>
<path d="M6323 7463 c9 -2 25 -2 35 0 9 3 1 5 -18 5 -19 0 -27 -2 -17 -5z"/>
<path d="M5381 7434 c0 -11 3 -14 6 -6 3 7 2 16 -1 19 -3 4 -6 -2 -5 -13z"/>
<path d="M6164 7390 c-8 -37 -23 -50 -49 -39 l-20 8 20 1 c11 2 23 2 28 1 10
-1 9 11 -3 29 -9 13 -12 13 -21 -2 -5 -10 -17 -18 -25 -18 -8 0 -12 -4 -9 -10
3 -5 0 -7 -9 -4 -11 4 -18 -12 -32 -76 -12 -53 -20 -76 -24 -64 -10 26 -32
-98 -25 -133 5 -22 4 -25 -5 -13 -9 13 -11 12 -8 -5 3 -17 12 -20 71 -23 50
-2 67 0 67 10 0 9 3 9 11 -2 7 -11 8 -6 4 20 -4 19 3 87 13 150 11 63 20 122
20 130 0 8 3 27 6 43 4 15 4 27 1 27 -3 0 -8 -13 -11 -30z m-9 -69 c3 -5 2
-12 -3 -15 -5 -3 -9 1 -9 9 0 17 3 19 12 6z"/>
<path d="M6085 7399 c-4 -6 -5 -12 -2 -15 2 -3 7 2 10 11 7 17 1 20 -8 4z"/>
<path d="M5372 7380 c0 -14 2 -19 5 -12 2 6 2 18 0 25 -3 6 -5 1 -5 -13z"/>
<path d="M6391 7354 c0 -11 3 -14 6 -6 3 7 2 16 -1 19 -3 4 -6 -2 -5 -13z"/>
<path d="M6031 7314 c0 -11 3 -14 6 -6 3 7 2 16 -1 19 -3 4 -6 -2 -5 -13z"/>
<path d="M6455 7320 c-3 -5 -1 -10 4 -10 6 0 11 5 11 10 0 6 -2 10 -4 10 -3 0
-8 -4 -11 -10z"/>
<path d="M6021 7274 c0 -11 3 -14 6 -6 3 7 2 16 -1 19 -3 4 -6 -2 -5 -13z"/>
<path d="M6371 7244 c0 -11 3 -14 6 -6 3 7 2 16 -1 19 -3 4 -6 -2 -5 -13z"/>
<path d="M6161 7224 c0 -11 3 -14 6 -6 3 7 2 16 -1 19 -3 4 -6 -2 -5 -13z"/>
<path d="M9530 7130 c-8 -5 -10 -10 -5 -10 6 0 17 5 25 10 8 5 11 10 5 10 -5
0 -17 -5 -25 -10z"/>
<path d="M6142 7110 c0 -14 2 -19 5 -12 2 6 2 18 0 25 -3 6 -5 1 -5 -13z"/>
<path d="M1455 7054 c88 -36 183 -73 210 -83 28 -10 131 -53 230 -96 99 -42
191 -77 204 -77 24 0 99 -30 221 -85 91 -42 107 -45 115 -20 4 12 9 103 11
202 1 99 1 172 -2 163 -6 -19 -44 -25 -44 -8 0 6 5 10 10 10 15 0 12 40 -2 41
-7 1 -2 5 12 9 14 4 -234 8 -550 9 l-575 1 160 -66z m858 -11 c-7 -2 -19 -2
-25 0 -7 3 -2 5 12 5 14 0 19 -2 13 -5z"/>
<path d="M2120 6780 c8 -5 20 -10 25 -10 6 0 3 5 -5 10 -8 5 -19 10 -25 10 -5
0 -3 -5 5 -10z"/>
<path d="M2452 6725 c0 -16 2 -22 5 -12 2 9 2 23 0 30 -3 6 -5 -1 -5 -18z"/>
<path d="M3396 6733 c-6 -14 -5 -15 5 -6 7 7 10 15 7 18 -3 3 -9 -2 -12 -12z"/>
<path d="M2461 6644 c0 -11 3 -14 6 -6 3 7 2 16 -1 19 -3 4 -6 -2 -5 -13z"/>
<path d="M4596 6365 c-9 -23 4 -45 25 -42 27 4 43 23 36 41 -8 20 -53 21 -61
1z"/>
<path d="M3654 6355 c-8 -20 4 -35 27 -35 24 0 37 29 18 41 -21 13 -39 11 -45
-6z"/>
<path d="M7608 6363 c7 -3 16 -2 19 1 4 3 -2 6 -13 5 -11 0 -14 -3 -6 -6z"/>
<path d="M4920 6279 c-13 -24 -5 -39 21 -39 13 0 19 7 19 24 0 31 -26 41 -40
15z"/>
<path d="M8578 6153 c7 -3 16 -2 19 1 4 3 -2 6 -13 5 -11 0 -14 -3 -6 -6z"/>
<path d="M8515 6140 c-3 -6 1 -7 9 -4 18 7 21 14 7 14 -6 0 -13 -4 -16 -10z"/>
<path d="M3838 6113 c7 -3 16 -2 19 1 4 3 -2 6 -13 5 -11 0 -14 -3 -6 -6z"/>
<path d="M8105 5731 c-11 -5 -23 -7 -27 -4 -5 2 -8 -1 -8 -7 0 -12 30 -6 60
11 19 11 2 10 -25 0z"/>
<path d="M8540 5600 c0 -5 5 -10 10 -10 6 0 10 5 10 10 0 6 -4 10 -10 10 -5 0
-10 -4 -10 -10z"/>
<path d="M2315 5580 c4 -6 11 -8 16 -5 14 9 11 15 -7 15 -8 0 -12 -5 -9 -10z"/>
<path d="M7328 5314 c-20 -10 -28 -22 -28 -42 0 -54 50 -70 88 -29 23 24 24
46 3 71 -16 20 -28 20 -63 0z"/>
<path d="M7363 4861 c1 -13 7 -18 19 -16 10 2 17 -2 15 -8 -1 -7 4 -12 11 -11
6 1 27 2 45 3 l32 3 -32 9 c-18 5 -33 14 -33 20 0 6 -9 9 -20 6 -11 -3 -18 -1
-14 4 3 5 -2 9 -10 9 -8 0 -14 -8 -13 -19z"/>
<path d="M7326 4811 c-3 -4 6 -6 19 -3 14 2 25 6 25 8 0 8 -39 4 -44 -5z"/>
<path d="M7205 4804 c-11 -3 -260 -32 -385 -44 l-75 -7 64 -1 c60 -2 127 4
316 28 44 6 93 10 109 10 17 0 27 3 23 7 -9 8 -38 12 -52 7z"/>
<path d="M5920 4440 c0 -5 4 -10 9 -10 6 0 13 5 16 10 3 6 -1 10 -9 10 -9 0
-16 -4 -16 -10z"/>
<path d="M4590 4435 c0 -6 56 -35 67 -35 4 0 -5 9 -22 20 -29 19 -45 25 -45
15z"/>
<path d="M4677 4389 c7 -7 15 -10 18 -7 3 3 -2 9 -12 12 -14 6 -15 5 -6 -5z"/>
</g>
</svg>
